<svg width="34" height="34" viewBox="0 0 34 34" fill="none" xmlns="http://www.w3.org/2000/svg">
<rect width="34" height="34" rx="3" fill="#2BB063"/>
<g clip-path="url(#clip0)">
<path d="M19.6064 17.0823L25.0004 20.4923V13.5283L19.6064 17.0823Z" fill="white"/>
<path d="M9 13.5283V20.4923L14.394 17.0823L9 13.5283Z" fill="white"/>
<path d="M24.0003 11.5H10.0003C9.50127 11.5 9.10527 11.872 9.03027 12.351L17.0003 17.602L24.9703 12.351C24.8953 11.872 24.4993 11.5 24.0003 11.5Z" fill="white"/>
<path d="M18.6902 17.6856L17.2752 18.6176C17.1912 18.6726 17.0962 18.6996 17.0002 18.6996C16.9042 18.6996 16.8092 18.6726 16.7252 18.6176L15.3102 17.6846L9.03223 21.6556C9.10923 22.1306 9.50323 22.4996 10.0002 22.4996H24.0002C24.4972 22.4996 24.8912 22.1306 24.9682 21.6556L18.6902 17.6856Z" fill="white"/>
</g>
<defs>
<clipPath id="clip0">
<rect width="16" height="16" fill="white" transform="translate(9 9)"/>
</clipPath>
</defs>
</svg>
