<svg width="34" height="34" viewBox="0 0 34 34" fill="none" xmlns="http://www.w3.org/2000/svg">
<rect width="34" height="34" rx="3" fill="#2BB063"/>
<path d="M20.6689 9H13.331C10.9429 9 9 10.9429 9 13.331V20.669C9 23.0571 10.9429 25 13.331 25H20.669C23.0571 25 25 23.0571 25 20.669V13.331C25 10.9429 23.0571 9 20.6689 9V9ZM17 21.3749C14.5876 21.3749 12.6251 19.4123 12.6251 17C12.6251 14.5876 14.5876 12.6251 17 12.6251C19.4123 12.6251 21.3749 14.5876 21.3749 17C21.3749 19.4123 19.4123 21.3749 17 21.3749ZM21.4795 13.6569C20.7666 13.6569 20.1867 13.077 20.1867 12.3641C20.1867 11.6512 20.7666 11.0713 21.4795 11.0713C22.1924 11.0713 22.7723 11.6512 22.7723 12.3641C22.7723 13.077 22.1924 13.6569 21.4795 13.6569Z" fill="white"/>
<path d="M17.0004 13.563C15.1053 13.563 13.5635 15.1047 13.5635 16.9999C13.5635 18.8949 15.1053 20.4368 17.0004 20.4368C18.8955 20.4368 20.4372 18.8949 20.4372 16.9999C20.4372 15.1047 18.8955 13.563 17.0004 13.563Z" fill="white"/>
<path d="M21.4797 12.0093C21.2842 12.0093 21.125 12.1685 21.125 12.364C21.125 12.5596 21.2842 12.7187 21.4797 12.7187C21.6754 12.7187 21.8346 12.5597 21.8346 12.364C21.8346 12.1683 21.6754 12.0093 21.4797 12.0093Z" fill="white"/>
</svg>
