<svg width="34" height="34" viewBox="0 0 34 34" fill="none" xmlns="http://www.w3.org/2000/svg">
<rect width="34" height="34" rx="3" fill="#2BB063"/>
<g clip-path="url(#clip0)">
<path d="M22.8766 19.1894C22.0195 19.1894 21.1779 19.0553 20.3804 18.7918C19.9896 18.6585 19.5092 18.7808 19.2707 19.0257L17.6965 20.2141C15.8709 19.2396 14.7464 18.1154 13.7852 16.3035L14.9386 14.7704C15.2382 14.4711 15.3457 14.034 15.2169 13.6238C14.9522 12.8221 14.8178 11.9809 14.8178 11.1234C14.8178 10.504 14.3139 10 13.6944 10H11.1234C10.504 10 10 10.504 10 11.1234C10 18.2237 15.7764 24 22.8766 24C23.4961 24 24 23.496 24 22.8766V20.3127C24 19.6934 23.496 19.1894 22.8766 19.1894Z" fill="white"/>
</g>
<defs>
<clipPath id="clip0">
<rect width="14" height="14" fill="white" transform="translate(10 10)"/>
</clipPath>
</defs>
</svg>
