<svg width="34" height="34" viewBox="0 0 34 34" fill="none" xmlns="http://www.w3.org/2000/svg">
<rect width="34" height="34" rx="3" fill="#2BB063"/>
<g clip-path="url(#clip0)">
<path d="M22.9362 17.771C22.6452 17.4035 22.7285 17.24 22.9362 16.9115C22.94 16.9078 25.3422 13.5883 25.5897 12.4625L25.5912 12.4618C25.7142 12.0515 25.5912 11.75 24.9965 11.75H23.0285C22.5275 11.75 22.2965 12.0088 22.1727 12.2983C22.1727 12.2983 21.1707 14.6968 19.7532 16.2515C19.2957 16.7008 19.0842 16.8448 18.8345 16.8448C18.7115 16.8448 18.5202 16.7008 18.5202 16.2905V12.4618C18.5202 11.9697 18.38 11.75 17.9652 11.75H14.8707C14.5565 11.75 14.3697 11.9795 14.3697 12.1933C14.3697 12.6598 15.0785 12.767 15.152 14.0795V16.9273C15.152 17.5513 15.0387 17.666 14.7875 17.666C14.1185 17.666 12.4947 15.2578 11.5325 12.5015C11.3382 11.9667 11.1485 11.7507 10.6437 11.7507H8.675C8.11325 11.7507 8 12.0095 8 12.299C8 12.8105 8.669 15.3538 11.111 18.7138C12.7385 21.0073 15.0305 22.25 17.1155 22.25C18.3687 22.25 18.5217 21.974 18.5217 21.4993C18.5217 19.3078 18.4085 19.1008 19.0362 19.1008C19.3272 19.1008 19.8282 19.2448 20.9982 20.351C22.3355 21.6628 22.5552 22.25 23.3037 22.25H25.2717C25.8327 22.25 26.117 21.974 25.9535 21.4295C25.5792 20.2843 23.0502 17.9285 22.9362 17.771Z" fill="white"/>
</g>
<defs>
<clipPath id="clip0">
<rect width="18" height="18" fill="white" transform="translate(8 8)"/>
</clipPath>
</defs>
</svg>
