<svg width="268" height="257" viewBox="0 0 268 257" fill="none" xmlns="http://www.w3.org/2000/svg">
<path d="M85.5505 9.06332C69.7775 27.9334 52.7054 38.1283 39.9682 43.0134C32.2457 45.9753 26.1462 53.4453 25.2308 61.6656C22.8969 82.6243 13.3342 104.747 5.49063 119.163C2.39682 124.849 2.85572 131.853 6.10943 137.449C16.5539 155.413 21.5973 179.42 23.5383 195.986C24.3085 202.561 28.902 208.104 35.0563 210.541C56.9372 219.205 74.5089 235.657 84.7345 247.984C88.9941 253.119 95.8427 255.592 102.365 254.19C125.702 249.174 147.394 250.693 161.995 253.483C169.717 254.959 177.971 251.342 183.105 245.389C195.693 230.794 217.411 218.365 233.079 211.121C238.683 208.53 242.387 203.012 242.951 196.864C245.147 172.925 254.534 151.521 262.189 138.442C265.405 132.947 265.564 126.053 262.448 120.5C250.553 99.2951 245.64 77.6671 244.101 63.3018C243.389 56.6554 239.107 50.732 232.959 48.1059C209.458 38.0656 193.113 22.062 184.061 10.0301C179.859 4.44466 172.809 1.2909 165.937 2.57024C139.899 7.41814 117.553 5.70161 103.561 2.92566C96.9351 1.61123 89.8825 3.88071 85.5505 9.06332Z" fill="url(#paint0_linear)"/>
<path d="M88.3118 18.0127C74.1244 34.7304 58.8687 44.0064 47.2309 48.6315C39.5417 51.6874 33.4288 59.1829 32.4128 67.3944C30.0814 86.2382 21.6094 105.953 14.4981 119.124C11.415 124.834 11.8753 131.861 15.0891 137.499C24.4058 153.842 29.0121 175.312 30.8632 190.474C31.6657 197.047 36.2674 202.592 42.4063 205.077C62.1542 213.068 78.0739 227.781 87.5645 239.044C91.8557 244.136 98.6888 246.595 105.208 245.235C126.238 240.851 145.779 242.105 159.229 244.564C166.95 245.976 175.205 242.356 180.427 236.496C192.077 223.425 211.479 212.287 225.784 205.631C231.387 203.024 235.096 197.499 235.703 191.35C237.833 169.781 246.204 150.489 253.192 138.409C256.389 132.884 256.543 125.968 253.445 120.387C242.834 101.268 238.305 81.8555 236.793 68.6562C236.032 62.0097 231.736 56.0945 225.6 53.4299C204.465 44.2525 189.619 29.947 181.179 18.9577C176.928 13.4234 169.89 10.2892 163.023 11.5312C139.506 15.7846 119.281 14.3318 106.329 11.8614C99.7078 10.5984 92.6735 12.873 88.3118 18.0127Z" stroke="#F2B253"/>
<path d="M109.774 101H103.632V59.782L95.714 68.144L92.014 64.37L104.372 51.642H109.774V101ZM150.316 77.986H136.108V93.748H131.89V77.986H117.682V74.138H131.89V58.82H136.108V74.138H150.316V77.986ZM171.778 101H165.636V59.782L157.718 68.144L154.018 64.37L166.376 51.642H171.778V101Z" fill="#333333"/>
<path d="M126.88 149.9H81.9801V140.7H126.88V149.9ZM126.88 168.5H81.9801V159.3H126.88V168.5ZM158.964 189.2C152.83 189.2 147.364 188.233 142.564 186.3C137.83 184.367 134.097 181.833 131.364 178.7L140.064 167C142.33 169.267 145.13 171 148.464 172.2C151.864 173.4 155.13 174 158.264 174C161.864 174 164.63 173.4 166.564 172.2C168.497 171 169.464 169.433 169.464 167.5C169.464 165.567 168.564 164.167 166.764 163.3C165.03 162.367 161.964 161.9 157.564 161.9C152.23 161.9 149.23 161.933 148.564 162V146.7C149.43 146.767 152.43 146.8 157.564 146.8C164.764 146.8 168.364 145.067 168.364 141.6C168.364 139.6 167.33 138.1 165.264 137.1C163.197 136.033 160.497 135.5 157.164 135.5C150.897 135.5 145.364 137.633 140.564 141.9L132.264 131.1C138.664 123.9 147.564 120.3 158.964 120.3C167.364 120.3 173.864 121.967 178.464 125.3C183.13 128.567 185.464 133 185.464 138.6C185.464 142.4 184.03 145.7 181.164 148.5C178.364 151.233 174.93 152.933 170.864 153.6C174.864 154 178.464 155.633 181.664 158.5C184.93 161.3 186.564 164.933 186.564 169.4C186.564 175.267 184.03 180.033 178.964 183.7C173.897 187.367 167.23 189.2 158.964 189.2Z" fill="#333333"/>
<defs>
<linearGradient id="paint0_linear" x1="134" y1="0" x2="134" y2="257" gradientUnits="userSpaceOnUse">
<stop stop-color="#FED06E"/>
<stop offset="1" stop-color="#FEE088"/>
</linearGradient>
</defs>
</svg>
