<svg width="422" height="285" viewBox="0 0 422 285" fill="none" xmlns="http://www.w3.org/2000/svg">
<path d="M46.0362 157.279C46.1472 165.717 23.7596 171.472 12.552 173.295C10.671 181.262 30.9518 185.174 41.3274 186.135C42.0671 215.96 58.7983 232.755 67.0714 237.424C149.739 271.397 284.297 259.265 303.707 258.327C323.117 257.389 392.477 260.883 404.84 181.789C414.731 118.513 411.37 74.237 386.297 54.8165C329.675 10.9596 228.768 12.6651 133.881 25.6958C37.7034 38.9039 45.8975 146.732 46.0362 157.279Z" fill="white"/>
<path d="M56.495 143.934C55.8695 152.067 33.8212 155.664 22.8752 156.446C20.3733 163.953 39.5548 169.479 49.4583 171.304C47.5819 200.082 62.2286 217.703 69.7866 222.916C146.408 262.798 276.978 262.798 295.743 263.58C314.508 264.362 380.965 273.746 399.73 198.674C414.742 138.617 403.5 90.9995 391.129 80.5931C346.5 43.0496 248.883 28.981 153.445 28.981C59.6225 28.9809 57.2769 133.768 56.495 143.934Z" stroke="#EEEEEE"/>
</svg>
